<svg width="281" height="61" viewBox="0 0 281 61" fill="none" xmlns="http://www.w3.org/2000/svg">
<path d="M273.124 44.6747H270.678C270.241 44.6747 270.022 44.4558 270.022 44.0181V35.5617L262.866 20.7382C262.766 20.5392 262.766 20.3601 262.866 20.2407C262.965 20.1213 263.104 20.0417 263.283 20.0417H266.345C266.663 20.0417 266.921 20.2606 267.1 20.6984L271.812 31.2241H272.05L276.682 20.6984C276.841 20.2606 277.1 20.0417 277.438 20.0417H280.499C280.698 20.0417 280.857 20.1014 280.936 20.2407C281.016 20.3601 281.016 20.5392 280.916 20.7382L273.76 35.5617V44.0181C273.78 44.4558 273.561 44.6747 273.124 44.6747ZM255.113 44.6747H252.707C252.25 44.6747 252.011 44.4558 252.011 44.0181V23.683C252.011 23.4243 251.892 23.3049 251.634 23.3049H246.823C246.365 23.3049 246.127 23.086 246.127 22.6483V20.6984C246.127 20.2606 246.365 20.0417 246.823 20.0417H261.017C261.474 20.0417 261.713 20.2606 261.713 20.6984V22.6483C261.713 23.086 261.474 23.3049 261.017 23.3049H256.186C255.908 23.3049 255.769 23.4243 255.769 23.683V44.0181C255.769 44.4558 255.55 44.6747 255.113 44.6747ZM242.608 20.6984V44.0181C242.608 44.4558 242.39 44.6747 241.952 44.6747H239.547C239.109 44.6747 238.891 44.4558 238.891 44.0181V20.6984C238.891 20.2606 239.109 20.0417 239.547 20.0417H241.952C242.39 20.0417 242.608 20.2606 242.608 20.6984ZM228.017 44.6747H223.583C221.695 44.6747 220.244 44.1573 219.21 43.1028C218.176 42.0482 217.659 40.5957 217.659 38.7453V25.9911C217.659 24.1008 218.176 22.6483 219.21 21.6136C220.244 20.579 221.695 20.0616 223.583 20.0616H228.017C229.885 20.0616 231.336 20.579 232.37 21.6136C233.424 22.6483 233.941 24.1008 233.941 25.9911V27.8216C233.941 28.2793 233.702 28.518 233.245 28.518H230.839C230.402 28.518 230.183 28.2793 230.183 27.8216V26.1303C230.183 24.2401 229.269 23.3049 227.42 23.3049H224.1C222.271 23.3049 221.337 24.2401 221.337 26.1303V38.5662C221.337 40.4564 222.251 41.3916 224.1 41.3916H227.42C229.249 41.3916 230.183 40.4564 230.183 38.5662V36.8749C230.183 36.4173 230.402 36.1785 230.839 36.1785H233.245C233.702 36.1785 233.941 36.4173 233.941 36.8749V38.7055C233.941 40.5758 233.424 42.0283 232.37 43.063C231.336 44.1573 229.885 44.6747 228.017 44.6747ZM200.94 44.6747H198.535C198.098 44.6747 197.879 44.4558 197.879 44.0181V25.7921C197.879 25.3543 198.098 25.1355 198.535 25.1355H200.94C201.378 25.1355 201.596 25.3543 201.596 25.7921V27.165H201.755C202.372 25.812 203.664 25.1355 205.612 25.1355H207.302C209.171 25.1355 210.602 25.6528 211.596 26.6676C212.59 27.6823 213.087 29.1547 213.087 31.0649V44.0181C213.087 44.4558 212.848 44.6747 212.391 44.6747H209.986C209.548 44.6747 209.33 44.4558 209.33 44.0181V31.2241C209.33 29.3338 208.395 28.3986 206.546 28.3986H204.737C202.65 28.3986 201.596 29.4731 201.596 31.6618V44.038C201.596 44.4558 201.378 44.6747 200.94 44.6747ZM182.731 34.0296H189.569C189.828 34.0296 189.947 33.9102 189.947 33.6515V31.2042C189.947 30.2292 189.728 29.5328 189.291 29.0751C188.853 28.6374 188.158 28.3986 187.184 28.3986H185.076C184.102 28.3986 183.406 28.6175 182.969 29.0751C182.532 29.5129 182.313 30.2292 182.313 31.2042V33.6515C182.333 33.8903 182.472 34.0296 182.731 34.0296ZM192.829 44.6747H184.559C182.671 44.6747 181.22 44.1573 180.186 43.1028C179.152 42.0482 178.635 40.5957 178.635 38.7453V31.0848C178.635 29.1945 179.152 27.742 180.186 26.7074C181.22 25.6727 182.671 25.1554 184.559 25.1554H187.7C189.589 25.1554 191.06 25.6727 192.094 26.7074C193.147 27.742 193.664 29.1945 193.664 31.0848V35.9397C193.664 36.3974 193.446 36.6361 192.969 36.6361H182.711C182.432 36.6361 182.293 36.7555 182.293 37.0142V38.6657C182.293 40.536 183.228 41.4712 185.096 41.4712H192.829C193.287 41.4712 193.525 41.71 193.525 42.1676V44.0778C193.505 44.4757 193.287 44.6747 192.829 44.6747ZM170.485 37.2132V28.7966C170.485 28.5379 170.345 28.4185 170.067 28.4185H165.515C163.706 28.4185 162.791 29.3537 162.791 31.244V37.6111C162.791 39.5014 163.686 40.4365 165.515 40.4365H167.344C169.431 40.4166 170.485 39.3422 170.485 37.2132ZM166.469 43.7196H164.739C162.91 43.7196 161.499 43.2023 160.505 42.1676C159.511 41.1329 159.034 39.6804 159.034 37.7902V31.0848C159.034 29.1945 159.551 27.742 160.604 26.7074C161.658 25.6727 163.109 25.1554 164.958 25.1554H173.526C173.983 25.1554 174.222 25.3742 174.222 25.812V44.7742C174.222 46.6445 173.685 48.0771 172.632 49.1118C171.578 50.1464 170.107 50.6638 168.258 50.6638H161.062C160.624 50.6638 160.406 50.4648 160.406 50.047V48.0572C160.406 47.6195 160.624 47.4006 161.062 47.4006H167.682C169.55 47.4006 170.465 46.4654 170.465 44.5752V41.6503H170.306C169.689 43.0232 168.397 43.7196 166.469 43.7196ZM149.591 44.6747H147.186C146.748 44.6747 146.53 44.4558 146.53 44.0181V25.7921C146.53 25.3543 146.748 25.1355 147.186 25.1355H149.591C150.028 25.1355 150.247 25.3543 150.247 25.7921V27.2446H150.406C150.665 26.6079 151.162 26.0905 151.877 25.7125C152.613 25.3344 153.408 25.1355 154.303 25.1355H155.714C156.151 25.1355 156.37 25.3543 156.37 25.7921V27.7818C156.37 28.2594 156.151 28.4782 155.714 28.3986H153.428C151.321 28.3986 150.247 29.5527 150.247 31.8807V44.0181C150.247 44.4558 150.028 44.6747 149.591 44.6747ZM131.381 34.0296H138.24C138.498 34.0296 138.617 33.9102 138.617 33.6515V31.2042C138.617 30.2292 138.399 29.5328 137.961 29.0751C137.524 28.6374 136.828 28.3986 135.854 28.3986H133.747C132.773 28.3986 132.077 28.6175 131.64 29.0751C131.202 29.5129 130.984 30.2292 130.984 31.2042V33.6515C131.003 33.8903 131.123 34.0296 131.381 34.0296ZM141.48 44.6747H133.21C131.322 44.6747 129.87 44.1573 128.837 43.1028C127.803 42.0482 127.286 40.5957 127.286 38.7453V31.0848C127.286 29.1945 127.803 27.742 128.837 26.7074C129.87 25.6727 131.322 25.1554 133.21 25.1554H136.351C138.24 25.1554 139.711 25.6727 140.745 26.7074C141.798 27.742 142.315 29.1945 142.315 31.0848V35.9397C142.315 36.3974 142.096 36.6361 141.639 36.6361H131.381C131.103 36.6361 130.964 36.7555 130.964 37.0142V38.6657C130.964 40.536 131.898 41.4712 133.767 41.4712H141.5C141.957 41.4712 142.196 41.71 142.196 42.1676V44.0778C142.176 44.4757 141.937 44.6747 141.48 44.6747ZM100.627 44.6747H98.2218C97.7845 44.6747 97.5658 44.4558 97.5658 44.0181V25.7921C97.5658 25.3543 97.7845 25.1355 98.2218 25.1355H100.627C101.065 25.1355 101.283 25.3543 101.283 25.7921V27.165H101.442C102.178 25.812 103.53 25.1355 105.498 25.1355H106.75C108.977 25.1355 110.547 25.9712 111.501 27.6624C111.919 26.8466 112.535 26.2099 113.37 25.7921C114.205 25.3543 115.12 25.1355 116.094 25.1355H117.326C119.195 25.1355 120.606 25.6528 121.6 26.6875C122.574 27.7221 123.071 29.1746 123.071 31.0649V44.0181C123.071 44.4558 122.853 44.6747 122.415 44.6747H119.97C119.533 44.6747 119.314 44.4558 119.314 44.0181V31.2241C119.314 29.3338 118.4 28.3986 116.551 28.3986H115.438C113.33 28.3986 112.257 29.5129 112.257 31.7215V44.0181C112.257 44.4558 112.018 44.6747 111.561 44.6747H109.156C108.718 44.6747 108.5 44.4558 108.5 44.0181V31.2241C108.5 29.3338 107.585 28.3986 105.736 28.3986H104.404C102.317 28.3986 101.263 29.4731 101.263 31.6618V44.038C101.263 44.4558 101.045 44.6747 100.627 44.6747ZM82.3975 34.0296H89.2561C89.5145 34.0296 89.6338 33.9102 89.6338 33.6515V31.2042C89.6338 30.2292 89.4151 29.5328 88.9777 29.0751C88.5404 28.6374 87.8446 28.3986 86.8705 28.3986H84.7632C83.7891 28.3986 83.0933 28.6175 82.656 29.0751C82.2186 29.5129 82 30.2292 82 31.2042V33.6515C82.0198 33.8903 82.159 34.0296 82.3975 34.0296ZM92.5163 44.6747H84.2464C82.3578 44.6747 80.9066 44.1573 79.8728 43.1028C78.8391 42.0482 78.3222 40.5957 78.3222 38.7453V31.0848C78.3222 29.1945 78.8391 27.742 79.8728 26.7074C80.9066 25.6727 82.3578 25.1554 84.2464 25.1554H87.3874C89.2759 25.1554 90.747 25.6727 91.7808 26.7074C92.8344 27.742 93.3513 29.1945 93.3513 31.0848V35.9397C93.3513 36.3974 93.1127 36.6361 92.6555 36.6361H82.3975C82.1192 36.6361 81.9801 36.7555 81.9801 37.0142V38.6657C81.9801 40.536 82.9144 41.4712 84.7632 41.4712H92.4965C92.9537 41.4712 93.1922 41.71 93.1922 42.1676V44.0778C93.1922 44.4757 92.9736 44.6747 92.5163 44.6747Z" fill="#1A202C"/>
<path d="M40.8788 60.5363C41.2236 60.5363 41.4649 60.1955 41.3504 59.8703L38.8252 52.6952C38.7502 52.4818 38.7118 52.2573 38.7118 52.0312V6.0363C39.5719 5.43481 40.1309 4.44666 40.1309 3.30815C40.1309 1.48222 38.6473 0 36.8196 0C34.992 0 33.5083 1.48222 33.5083 3.30815C33.5083 4.42519 34.0674 5.43481 34.9275 6.0363V52.0999C34.9275 52.281 34.9521 52.4613 35.0006 52.6358L36.9537 59.6578C37.0981 60.177 37.5709 60.5363 38.1098 60.5363H40.8788Z" fill="#005B94"/>
<path d="M52.4971 60.5363C52.8398 60.5363 53.0238 60.1334 52.7994 59.8744L46.4241 52.5143C46.3454 52.4234 46.302 52.3072 46.302 52.1869V22.089C47.1621 21.4875 47.7211 20.4993 47.7211 19.3608C47.6996 17.5349 46.216 16.0527 44.3883 16.0527C42.5607 16.0527 41.077 17.5349 41.077 19.3608C41.077 20.4778 41.6361 21.4875 42.4962 22.089V52.0689C42.4962 52.2674 42.5552 52.4614 42.6658 52.6262L47.3798 59.6507C47.7512 60.2042 48.374 60.5363 49.0405 60.5363H52.4971Z" fill="#009EDB"/>
<path d="M61.7825 60.5364C61.126 60.5364 60.4876 60.3211 59.9653 59.9234L50.4462 52.6766C50.1978 52.4874 50.0519 52.1931 50.0519 51.8809V12.4897C49.1919 11.9097 48.6328 10.9 48.6328 9.783C48.6328 7.95708 50.1164 6.47485 51.9441 6.47485C53.7718 6.47485 55.2554 7.95708 55.2554 9.783C55.2554 10.9 54.6964 11.8882 53.8363 12.4897V52.1149C53.8363 52.2787 53.9166 52.4321 54.0511 52.5256L64.8024 59.99C65.0438 60.1576 64.9252 60.5364 64.6313 60.5364L61.7825 60.5364Z" fill="#2A854E"/>
<path d="M13.552 60.5363C13.2093 60.5363 13.0253 60.1335 13.2497 59.8744L19.625 52.5144C19.7037 52.4235 19.7471 52.3072 19.7471 52.187V12.9581C18.887 12.3566 18.3279 11.3684 18.3279 10.2299C18.3494 8.40398 19.8331 6.92175 21.6608 6.92175C23.4884 6.92175 24.972 8.40398 24.972 10.2299C24.972 11.3469 24.413 12.3566 23.5529 12.9581V52.069C23.5529 52.2675 23.4939 52.4614 23.3833 52.6262L18.6693 59.6508C18.2979 60.2043 17.6751 60.5363 17.0086 60.5363H13.552Z" fill="#F37021"/>
<path d="M25.1703 60.5363C24.8255 60.5363 24.5842 60.1955 24.6987 59.8703L27.2239 52.6952C27.2989 52.4819 27.3373 52.2574 27.3373 52.0312L27.3373 32.7348C26.4772 32.1333 25.9182 31.1451 25.9182 30.0066C25.9182 28.1807 27.4018 26.6985 29.2295 26.6985C31.0571 26.6985 32.5408 28.1807 32.5408 30.0066C32.5408 31.1237 31.9817 32.1333 31.1216 32.7348L31.1216 52.0999C31.1216 52.2811 31.097 52.4614 31.0485 52.6359L29.0954 59.6578C28.951 60.177 28.4782 60.5363 27.9393 60.5363H25.1703Z" fill="#B82837"/>
<path d="M4.26662 60.5361C4.92311 60.5361 5.56147 60.3208 6.08382 59.9231L15.6029 52.6763C15.8513 52.4871 15.9972 52.1928 15.9972 51.8806L15.9972 24.1692C16.8572 23.5892 17.4163 22.5795 17.4163 21.4625C17.4163 19.6366 15.9327 18.1543 14.105 18.1543C12.2773 18.1543 10.7937 19.6366 10.7937 21.4625C10.7937 22.5795 11.3527 23.5677 12.2128 24.1692L12.2128 52.1146C12.2128 52.2784 12.1325 52.4318 11.998 52.5253L1.24675 59.9897C1.00533 60.1573 1.12394 60.5361 1.41784 60.5361L4.26662 60.5361Z" fill="#F3C937"/>
</svg>